TITLE ""
FILE "P1Q_t_0429-0438.mp3" MP3
  TRACK 01 AUDIO
    TITLE "P1Q_t_0429-0438_01"
    INDEX 01 00:00:00
  TRACK 02 AUDIO
    TITLE "P1Q_t_0429-0438_02"
    INDEX 01 00:01:12
  TRACK 03 AUDIO
    TITLE "P1Q_t_0429-0438_03"
    INDEX 01 00:01:57
  TRACK 04 AUDIO
    TITLE "P1Q_t_0429-0438_04"
    INDEX 01 00:03:13
  TRACK 05 AUDIO
    TITLE "P1Q_t_0429-0438_05"
    INDEX 01 00:03:36
  TRACK 06 AUDIO
    TITLE "P1Q_t_0429-0438_06"
    INDEX 01 00:05:60
  TRACK 07 AUDIO
    TITLE "P1Q_t_0429-0438_07"
    INDEX 01 00:06:07
  TRACK 08 AUDIO
    TITLE "P1Q_t_0429-0438_08"
    INDEX 01 00:11:36
  TRACK 09 AUDIO
    TITLE "P1Q_t_0429-0438_09"
    INDEX 01 00:12:08
  TRACK 10 AUDIO
    TITLE "P1Q_t_0429-0438_10"
    INDEX 01 00:13:40
  TRACK 11 AUDIO
    TITLE "P1Q_t_0429-0438_11"
    INDEX 01 00:13:62
  TRACK 12 AUDIO
    TITLE "P1Q_t_0429-0438_12"
    INDEX 01 00:17:48
  TRACK 13 AUDIO
    TITLE "P1Q_t_0429-0438_13"
    INDEX 01 00:17:70
  TRACK 14 AUDIO
    TITLE "P1Q_t_0429-0438_14"
    INDEX 01 00:21:75
  TRACK 15 AUDIO
    TITLE "P1Q_t_0429-0438_15"
    INDEX 01 00:22:47
  TRACK 16 AUDIO
    TITLE "P1Q_t_0429-0438_16"
    INDEX 01 00:23:56
  TRACK 17 AUDIO
    TITLE "P1Q_t_0429-0438_17"
    INDEX 01 00:24:03
  TRACK 18 AUDIO
    TITLE "P1Q_t_0429-0438_18"
    INDEX 01 00:27:23
  TRACK 19 AUDIO
    TITLE "P1Q_t_0429-0438_19"
    INDEX 01 00:27:44
  TRACK 20 AUDIO
    TITLE "P1Q_t_0429-0438_20"
    INDEX 01 00:31:15
  TRACK 21 AUDIO
    TITLE "P1Q_t_0429-0438_21"
    INDEX 01 00:31:62
  TRACK 22 AUDIO
    TITLE "P1Q_t_0429-0438_22"
    INDEX 01 00:33:08
  TRACK 23 AUDIO
    TITLE "P1Q_t_0429-0438_23"
    INDEX 01 00:33:29
  TRACK 24 AUDIO
    TITLE "P1Q_t_0429-0438_24"
    INDEX 01 00:34:64
  TRACK 25 AUDIO
    TITLE "P1Q_t_0429-0438_25"
    INDEX 01 00:35:11
  TRACK 26 AUDIO
    TITLE "P1Q_t_0429-0438_26"
    INDEX 01 00:39:48
  TRACK 27 AUDIO
    TITLE "P1Q_t_0429-0438_27"
    INDEX 01 00:40:20
  TRACK 28 AUDIO
    TITLE "P1Q_t_0429-0438_28"
    INDEX 01 00:41:21
  TRACK 29 AUDIO
    TITLE "P1Q_t_0429-0438_29"
    INDEX 01 00:41:46
  TRACK 30 AUDIO
    TITLE "P1Q_t_0429-0438_30"
    INDEX 01 00:44:49
  TRACK 31 AUDIO
    TITLE "P1Q_t_0429-0438_31"
    INDEX 01 00:44:68
  TRACK 32 AUDIO
    TITLE "P1Q_t_0429-0438_32"
    INDEX 01 00:49:01
  TRACK 33 AUDIO
    TITLE "P1Q_t_0429-0438_33"
    INDEX 01 00:49:48
  TRACK 34 AUDIO
    TITLE "P1Q_t_0429-0438_34"
    INDEX 01 00:51:23
  TRACK 35 AUDIO
    TITLE "P1Q_t_0429-0438_35"
    INDEX 01 00:51:45
  TRACK 36 AUDIO
    TITLE "P1Q_t_0429-0438_36"
    INDEX 01 00:53:10
  TRACK 37 AUDIO
    TITLE "P1Q_t_0429-0438_37"
    INDEX 01 00:53:30
  TRACK 38 AUDIO
    TITLE "P1Q_t_0429-0438_38"
    INDEX 01 00:58:45
  TRACK 39 AUDIO
    TITLE "P1Q_t_0429-0438_39"
    INDEX 01 00:59:23
  TRACK 40 AUDIO
    TITLE "P1Q_t_0429-0438_40"
    INDEX 01 01:00:54
  TRACK 41 AUDIO
    TITLE "P1Q_t_0429-0438_41"
    INDEX 01 01:00:75
  TRACK 42 AUDIO
    TITLE "P1Q_t_0429-0438_42"
    INDEX 01 01:05:27
  TRACK 43 AUDIO
    TITLE "P1Q_t_0429-0438_43"
    INDEX 01 01:05:47
  TRACK 44 AUDIO
    TITLE "P1Q_t_0429-0438_44"
    INDEX 01 01:11:34
  TRACK 45 AUDIO
    TITLE "P1Q_t_0429-0438_45"
    INDEX 01 01:12:04
  TRACK 46 AUDIO
    TITLE "P1Q_t_0429-0438_46"
    INDEX 01 01:13:43
  TRACK 47 AUDIO
    TITLE "P1Q_t_0429-0438_47"
    INDEX 01 01:13:64
  TRACK 48 AUDIO
    TITLE "P1Q_t_0429-0438_48"
    INDEX 01 01:16:08
  TRACK 49 AUDIO
    TITLE "P1Q_t_0429-0438_49"
    INDEX 01 01:16:29
  TRACK 50 AUDIO
    TITLE "P1Q_t_0429-0438_50"
    INDEX 01 01:20:31
  TRACK 51 AUDIO
    TITLE "P1Q_t_0429-0438_51"
    INDEX 01 01:21:01
  TRACK 52 AUDIO
    TITLE "P1Q_t_0429-0438_52"
    INDEX 01 01:22:30
  TRACK 53 AUDIO
    TITLE "P1Q_t_0429-0438_53"
    INDEX 01 01:22:51
  TRACK 54 AUDIO
    TITLE "P1Q_t_0429-0438_54"
    INDEX 01 01:25:03
  TRACK 55 AUDIO
    TITLE "P1Q_t_0429-0438_55"
    INDEX 01 01:25:22
  TRACK 56 AUDIO
    TITLE "P1Q_t_0429-0438_56"
    INDEX 01 01:30:41
  TRACK 57 AUDIO
    TITLE "P1Q_t_0429-0438_57"
    INDEX 01 01:31:13
  TRACK 58 AUDIO
    TITLE "P1Q_t_0429-0438_58"
    INDEX 01 01:32:38
  TRACK 59 AUDIO
    TITLE "P1Q_t_0429-0438_59"
    INDEX 01 01:32:60
  TRACK 60 AUDIO
    TITLE "P1Q_t_0429-0438_60"
    INDEX 01 01:35:27
  TRACK 61 AUDIO
    TITLE "P1Q_t_0429-0438_61"
    INDEX 01 01:35:48
  TRACK 62 AUDIO
    TITLE "P1Q_t_0429-0438_62"
    INDEX 01 01:40:55
